<svg width="162" height="234" viewBox="0 0 162 234" fill="none" xmlns="http://www.w3.org/2000/svg">
<g filter="url(#filter0_bd_16_476)">
<path d="M57.9212 38.9047C47.3029 43.5602 38.2601 51.1934 31.8853 60.8816C25.5105 70.5699 22.0771 81.8982 22 93.4973V98.9447V195.814C22 195.814 68.3366 180.123 71.1772 178.909C81.791 174.247 90.8298 166.613 97.2037 156.926C103.578 147.239 107.014 135.914 107.098 124.317V122.126V22C107.098 22 60.7322 37.6909 57.9212 38.9047Z" fill="url(#paint0_linear_16_476)" fill-opacity="0.6" shape-rendering="crispEdges"/>
<path d="M57.9212 38.9047C47.3029 43.5602 38.2601 51.1934 31.8853 60.8816C25.5105 70.5699 22.0771 81.8982 22 93.4973V98.9447V195.814C22 195.814 68.3366 180.123 71.1772 178.909C81.791 174.247 90.8298 166.613 97.2037 156.926C103.578 147.239 107.014 135.914 107.098 124.317V122.126V22C107.098 22 60.7322 37.6909 57.9212 38.9047Z" fill="#6685FF" fill-opacity="0.3" shape-rendering="crispEdges"/>
<path d="M105.261 23.1501L106.598 22.6972V122.126V124.315C106.514 135.815 103.106 147.045 96.786 156.651C90.4655 166.257 81.5026 173.828 70.978 178.45C69.5674 179.052 57.3118 183.265 45.3619 187.343C39.3926 189.381 33.512 191.38 29.1237 192.87C26.9296 193.615 25.1085 194.232 23.836 194.664L22.5 195.117V98.9447V93.4989C22.5768 81.997 25.9816 70.7636 32.303 61.1565C38.6244 51.5493 47.5915 43.9799 58.1207 39.3632C59.5083 38.7647 71.7667 34.5502 83.7254 30.4704C89.6965 28.4333 95.5798 26.4341 99.9704 24.9442C102.166 24.1992 103.988 23.5815 105.261 23.1501Z" stroke="url(#paint1_linear_16_476)" stroke-opacity="0.6" shape-rendering="crispEdges"/>
<path d="M105.261 23.1501L106.598 22.6972V122.126V124.315C106.514 135.815 103.106 147.045 96.786 156.651C90.4655 166.257 81.5026 173.828 70.978 178.45C69.5674 179.052 57.3118 183.265 45.3619 187.343C39.3926 189.381 33.512 191.38 29.1237 192.87C26.9296 193.615 25.1085 194.232 23.836 194.664L22.5 195.117V98.9447V93.4989C22.5768 81.997 25.9816 70.7636 32.303 61.1565C38.6244 51.5493 47.5915 43.9799 58.1207 39.3632C59.5083 38.7647 71.7667 34.5502 83.7254 30.4704C89.6965 28.4333 95.5798 26.4341 99.9704 24.9442C102.166 24.1992 103.988 23.5815 105.261 23.1501Z" stroke="url(#paint2_linear_16_476)" shape-rendering="crispEdges"/>
</g>
<g filter="url(#filter1_bd_16_476)">
<path d="M96.4186 85.085C88.0757 88.7319 80.9706 94.7114 75.9618 102.301C70.9531 109.89 68.2554 118.764 68.1948 127.85V132.117V208C68.1948 208 104.602 195.709 106.834 194.758C115.173 191.106 122.275 185.125 127.283 177.537C132.291 169.949 134.991 161.077 135.058 151.993V150.276V71.8427C135.058 71.8427 98.6273 84.1342 96.4186 85.085Z" fill="url(#paint3_linear_16_476)" fill-opacity="0.6" shape-rendering="crispEdges"/>
<path d="M96.4186 85.085C88.0757 88.7319 80.9706 94.7114 75.9618 102.301C70.9531 109.89 68.2554 118.764 68.1948 127.85V132.117V208C68.1948 208 104.602 195.709 106.834 194.758C115.173 191.106 122.275 185.125 127.283 177.537C132.291 169.949 134.991 161.077 135.058 151.993V150.276V71.8427C135.058 71.8427 98.6273 84.1342 96.4186 85.085Z" fill="#2020EB" fill-opacity="0.3" shape-rendering="crispEdges"/>
<path d="M133.648 72.8464L134.558 72.5392V150.276V151.991C134.492 160.978 131.821 169.755 126.866 177.262C121.912 184.769 114.886 190.686 106.636 194.299C105.53 194.769 95.9083 198.067 86.5164 201.262C81.8263 202.858 77.2059 204.424 73.758 205.591C72.0341 206.175 70.6033 206.658 69.6035 206.996L68.6948 207.303V132.117V127.852C68.7551 118.863 71.424 110.084 76.3791 102.576C81.3344 95.0679 88.3636 89.152 96.6176 85.5437C97.704 85.0766 107.328 81.7777 116.727 78.5806C121.419 76.9849 126.042 75.4188 129.491 74.2517C131.216 73.6681 132.648 73.1843 133.648 72.8464Z" stroke="url(#paint4_linear_16_476)" stroke-opacity="0.6" shape-rendering="crispEdges"/>
<path d="M133.648 72.8464L134.558 72.5392V150.276V151.991C134.492 160.978 131.821 169.755 126.866 177.262C121.912 184.769 114.886 190.686 106.636 194.299C105.53 194.769 95.9083 198.067 86.5164 201.262C81.8263 202.858 77.2059 204.424 73.758 205.591C72.0341 206.175 70.6033 206.658 69.6035 206.996L68.6948 207.303V132.117V127.852C68.7551 118.863 71.424 110.084 76.3791 102.576C81.3344 95.0679 88.3636 89.152 96.6176 85.5437C97.704 85.0766 107.328 81.7777 116.727 78.5806C121.419 76.9849 126.042 75.4188 129.491 74.2517C131.216 73.6681 132.648 73.1843 133.648 72.8464Z" stroke="url(#paint5_linear_16_476)" shape-rendering="crispEdges"/>
</g>
<g clip-path="url(#clip0_16_476)">
<path d="M66.5276 100.663L90.5949 114.546C94.7483 116.935 94.7483 122.909 90.5949 125.299L66.5276 139.182C62.431 141.572 57.2534 138.613 57.2534 133.834V106.011C57.2534 101.232 62.431 98.2732 66.5276 100.663Z" fill="white"/>
</g>
<defs>
<filter id="filter0_bd_16_476" x="0" y="0" width="133.099" height="221.814" filterUnits="userSpaceOnUse" color-interpolation-filters="sRGB">
<feFlood flood-opacity="0" result="BackgroundImageFix"/>
<feGaussianBlur in="BackgroundImageFix" stdDeviation="8"/>
<feComposite in2="SourceAlpha" operator="in" result="effect1_backgroundBlur_16_476"/>
<feColorMatrix in="SourceAlpha" type="matrix" values="0 0 0 0 0 0 0 0 0 0 0 0 0 0 0 0 0 0 127 0" result="hardAlpha"/>
<feOffset dx="2" dy="2"/>
<feGaussianBlur stdDeviation="12"/>
<feComposite in2="hardAlpha" operator="out"/>
<feColorMatrix type="matrix" values="0 0 0 0 0 0 0 0 0 0 0 0 0 0 0 0 0 0 0.15 0"/>
<feBlend mode="normal" in2="effect1_backgroundBlur_16_476" result="effect2_dropShadow_16_476"/>
<feBlend mode="normal" in="SourceGraphic" in2="effect2_dropShadow_16_476" result="shape"/>
</filter>
<filter id="filter1_bd_16_476" x="46.1948" y="49.8427" width="114.863" height="184.157" filterUnits="userSpaceOnUse" color-interpolation-filters="sRGB">
<feFlood flood-opacity="0" result="BackgroundImageFix"/>
<feGaussianBlur in="BackgroundImageFix" stdDeviation="8"/>
<feComposite in2="SourceAlpha" operator="in" result="effect1_backgroundBlur_16_476"/>
<feColorMatrix in="SourceAlpha" type="matrix" values="0 0 0 0 0 0 0 0 0 0 0 0 0 0 0 0 0 0 127 0" result="hardAlpha"/>
<feOffset dx="2" dy="2"/>
<feGaussianBlur stdDeviation="12"/>
<feComposite in2="hardAlpha" operator="out"/>
<feColorMatrix type="matrix" values="0 0 0 0 0 0 0 0 0 0 0 0 0 0 0 0 0 0 0.15 0"/>
<feBlend mode="normal" in2="effect1_backgroundBlur_16_476" result="effect2_dropShadow_16_476"/>
<feBlend mode="normal" in="SourceGraphic" in2="effect2_dropShadow_16_476" result="shape"/>
</filter>
<linearGradient id="paint0_linear_16_476" x1="64.5492" y1="22" x2="157.95" y2="55.9616" gradientUnits="userSpaceOnUse">
<stop stop-color="white" stop-opacity="0.2"/>
<stop offset="1" stop-color="white" stop-opacity="0"/>
</linearGradient>
<linearGradient id="paint1_linear_16_476" x1="123.417" y1="91.485" x2="94.3345" y2="91.9369" gradientUnits="userSpaceOnUse">
<stop stop-color="white"/>
<stop offset="1" stop-color="#EFEFEF" stop-opacity="0"/>
</linearGradient>
<linearGradient id="paint2_linear_16_476" x1="22" y1="22" x2="63.3655" y2="32.7652" gradientUnits="userSpaceOnUse">
<stop stop-color="white" stop-opacity="0.5"/>
<stop offset="1" stop-color="white" stop-opacity="0"/>
</linearGradient>
<linearGradient id="paint3_linear_16_476" x1="101.626" y1="71.8427" x2="174.961" y2="98.5883" gradientUnits="userSpaceOnUse">
<stop stop-color="white" stop-opacity="0.2"/>
<stop offset="1" stop-color="white" stop-opacity="0"/>
</linearGradient>
<linearGradient id="paint4_linear_16_476" x1="147.88" y1="126.274" x2="125.029" y2="126.63" gradientUnits="userSpaceOnUse">
<stop stop-color="white"/>
<stop offset="1" stop-color="#EFEFEF" stop-opacity="0"/>
</linearGradient>
<linearGradient id="paint5_linear_16_476" x1="68.1948" y1="71.8427" x2="100.684" y2="80.3232" gradientUnits="userSpaceOnUse">
<stop stop-color="white" stop-opacity="0.5"/>
<stop offset="1" stop-color="white" stop-opacity="0"/>
</linearGradient>
<clipPath id="clip0_16_476">
<rect width="36.4708" height="40.2259" fill="white" transform="translate(57.2534 99.8046)"/>
</clipPath>
</defs>
</svg>
