<svg width="24" height="16" viewBox="0 0 24 16" fill="none" xmlns="http://www.w3.org/2000/svg">
<rect width="24" height="16" rx="2" fill="white"/>
<path d="M9.1 8.52C9.228 8.68 9.388 8.892 9.58 9.156C9.78 9.412 9.984 9.7 10.192 10.02C10.4 10.332 10.604 10.66 10.804 11.004C11.012 11.348 11.188 11.68 11.332 12H10.06C9.9 11.696 9.724 11.388 9.532 11.076C9.348 10.764 9.16 10.468 8.968 10.188C8.776 9.9 8.584 9.632 8.392 9.384C8.208 9.136 8.04 8.92 7.888 8.736C7.784 8.744 7.676 8.748 7.564 8.748C7.46 8.748 7.352 8.748 7.24 8.748H6.196V12H5.032V3.804C5.36 3.724 5.724 3.672 6.124 3.648C6.532 3.616 6.904 3.6 7.24 3.6C8.408 3.6 9.296 3.82 9.904 4.26C10.52 4.7 10.828 5.356 10.828 6.228C10.828 6.78 10.68 7.252 10.384 7.644C10.096 8.036 9.668 8.328 9.1 8.52ZM7.336 4.62C6.84 4.62 6.46 4.632 6.196 4.656V7.788H7.024C7.424 7.788 7.784 7.768 8.104 7.728C8.424 7.688 8.692 7.612 8.908 7.5C9.132 7.388 9.304 7.232 9.424 7.032C9.544 6.824 9.604 6.552 9.604 6.216C9.604 5.904 9.544 5.644 9.424 5.436C9.304 5.228 9.14 5.064 8.932 4.944C8.732 4.824 8.492 4.74 8.212 4.692C7.94 4.644 7.648 4.62 7.336 4.62ZM15.6749 12.18C15.1309 12.18 14.6589 12.096 14.2589 11.928C13.8589 11.76 13.5309 11.532 13.2749 11.244C13.0189 10.948 12.8269 10.6 12.6989 10.2C12.5789 9.8 12.5189 9.368 12.5189 8.904V3.684H13.6829V8.772C13.6829 9.604 13.8669 10.208 14.2349 10.584C14.6029 10.96 15.0829 11.148 15.6749 11.148C15.9709 11.148 16.2389 11.104 16.4789 11.016C16.7269 10.92 16.9389 10.776 17.1149 10.584C17.2909 10.392 17.4269 10.148 17.5229 9.852C17.6189 9.548 17.6669 9.188 17.6669 8.772V3.684H18.8309V8.904C18.8309 9.368 18.7669 9.8 18.6389 10.2C18.5189 10.6 18.3269 10.948 18.0629 11.244C17.8069 11.532 17.4789 11.76 17.0789 11.928C16.6869 12.096 16.2189 12.18 15.6749 12.18Z" fill="#6E9BB8"/>
</svg>
